HIERARCHY
ROOT Root
{
  OFFSET 0.0 0.0 0.0
  CHANNELS 6 Xposition Yposition Zposition Zrotation Yrotation Xrotation
  JOINT Hips
  {
    OFFSET 0.0 100.0 0.0
    CHANNELS 6 Xposition Yposition Zposition Zrotation Yrotation Xrotation
    JOINT Spine1
    {
      OFFSET -0.013727 5.003763 -0.053727
      CHANNELS 3 Zrotation Yrotation Xrotation
      JOINT Spine2
      {
        OFFSET -0.0 7.125301 -0.029825
        CHANNELS 3 Zrotation Yrotation Xrotation
        JOINT Chest
        {
          OFFSET -1e-06 7.550063 -0.815971
          CHANNELS 3 Zrotation Yrotation Xrotation
          JOINT Neck1
          {
            OFFSET -0.181677 26.311295 -0.553348
            CHANNELS 3 Zrotation Yrotation Xrotation
            JOINT Neck2
            {
              OFFSET -3e-06 7.709397 2.302585
              CHANNELS 3 Zrotation Yrotation Xrotation
              JOINT Head
              {
                OFFSET -5e-06 6.128916 1.953709
                CHANNELS 3 Zrotation Yrotation Xrotation
                JOINT HeadEnd
                {
                  OFFSET 0.003598 16.065403 -1.835379
                  CHANNELS 3 Zrotation Yrotation Xrotation
                }
                JOINT Jaw
                {
                  OFFSET 0.002637 0.475592 3.094941
                  CHANNELS 3 Zrotation Yrotation Xrotation
                }
                JOINT LeftEye
                {
                  OFFSET 3.206381 5.380205 7.586883
                  CHANNELS 3 Zrotation Yrotation Xrotation
                }
                JOINT RightEye
                {
                  OFFSET -3.22244 5.361869 7.558234
                  CHANNELS 3 Zrotation Yrotation Xrotation
                }
              }
            }
          }
          JOINT LeftShoulder
          {
            OFFSET 1.621652 23.237164 5.113413
            CHANNELS 3 Zrotation Yrotation Xrotation
            JOINT LeftArm
            {
              OFFSET 14.919846 2e-06 -5.502326
              CHANNELS 3 Zrotation Yrotation Xrotation
              JOINT LeftForeArm
              {
                OFFSET 28.739307 0.0 -0.002588
                CHANNELS 3 Zrotation Yrotation Xrotation
                JOINT LeftHand
                {
                  OFFSET 27.093981 -1e-06 0.002609
                  CHANNELS 3 Zrotation Yrotation Xrotation
                  JOINT LeftHandThumb1
                  {
                    OFFSET 2.276482 -1.392045 3.191413
                    CHANNELS 3 Zrotation Yrotation Xrotation
                    JOINT LeftHandThumb2
                    {
                      OFFSET 4.012836 -1.828127 1.641654
                      CHANNELS 3 Zrotation Yrotation Xrotation
                      JOINT LeftHandThumb3
                      {
                        OFFSET 2.798515 0.0 -3e-06
                        CHANNELS 3 Zrotation Yrotation Xrotation
                        JOINT LeftHandThumbEnd
                        {
                          OFFSET 3.180793 -4e-06 4e-06
                          CHANNELS 3 Zrotation Yrotation Xrotation
                        }
                      }
                    }
                  }
                  JOINT LeftHandIndex1
                  {
                    OFFSET 3.247555 -0.531998 2.296169
                    CHANNELS 3 Zrotation Yrotation Xrotation
                    JOINT LeftHandIndex2
                    {
                      OFFSET 6.364578 0.01206 0.1786
                      CHANNELS 3 Zrotation Yrotation Xrotation
                      JOINT LeftHandIndex3
                      {
                        OFFSET 3.662364 0.0 0.0
                        CHANNELS 3 Zrotation Yrotation Xrotation
                        JOINT LeftHandIndex4
                        {
                          OFFSET 2.329242 4e-06 4e-06
                          CHANNELS 3 Zrotation Yrotation Xrotation
                          JOINT LeftHandIndexEnd
                          {
                            OFFSET 2.759615 -0.180537 -0.113024
                            CHANNELS 3 Zrotation Yrotation Xrotation
                          }
                        }
                      }
                    }
                  }
                  JOINT LeftHandMiddle1
                  {
                    OFFSET 3.163495 0.240981 1.000332
                    CHANNELS 3 Zrotation Yrotation Xrotation
                    JOINT LeftHandMiddle2
                    {
                      OFFSET 6.19078 -0.259278 -1.002548
                      CHANNELS 3 Zrotation Yrotation Xrotation
                      JOINT LeftHandMiddle3
                      {
                        OFFSET 4.35652 -4e-06 -1e-06
                        CHANNELS 3 Zrotation Yrotation Xrotation
                        JOINT LeftHandMiddle4
                        {
                          OFFSET 2.996877 -8e-06 0.0
                          CHANNELS 3 Zrotation Yrotation Xrotation
                          JOINT LeftHandMiddleEnd
                          {
                            OFFSET 2.304287 -0.294569 -0.031741
                            CHANNELS 3 Zrotation Yrotation Xrotation
                          }
                        }
                      }
                    }
                  }
                  JOINT LeftHandRing1
                  {
                    OFFSET 2.882643 -0.053652 -0.322543
                    CHANNELS 3 Zrotation Yrotation Xrotation
                    JOINT LeftHandRing2
                    {
                      OFFSET 5.854541 -0.486202 -1.373841
                      CHANNELS 3 Zrotation Yrotation Xrotation
                      JOINT LeftHandRing3
                      {
                        OFFSET 4.350578 0.0 3e-06
                        CHANNELS 3 Zrotation Yrotation Xrotation
                        JOINT LeftHandRing4
                        {
                          OFFSET 2.651321 7e-06 2e-06
                          CHANNELS 3 Zrotation Yrotation Xrotation
                          JOINT LeftHandRingEnd
                          {
                            OFFSET 1.936105 0.077687 -7.1e-05
                            CHANNELS 3 Zrotation Yrotation Xrotation
                          }
                        }
                      }
                    }
                  }
                  JOINT LeftHandPinky1
                  {
                    OFFSET 2.8655 -0.310005 -1.600378
                    CHANNELS 3 Zrotation Yrotation Xrotation
                    JOINT LeftHandPinky2
                    {
                      OFFSET 5.087849 -1.331141 -1.77123
                      CHANNELS 3 Zrotation Yrotation Xrotation
                      JOINT LeftHandPinky3
                      {
                        OFFSET 3.070974 4e-06 0.0
                        CHANNELS 3 Zrotation Yrotation Xrotation
                        JOINT LeftHandPinky4
                        {
                          OFFSET 1.549672 0.0 1e-06
                          CHANNELS 3 Zrotation Yrotation Xrotation
                          JOINT LeftHandPinkyEnd
                          {
                            OFFSET 1.944893 -0.157802 0.057219
                            CHANNELS 3 Zrotation Yrotation Xrotation
                          }
                        }
                      }
                    }
                  }
                }
              }
            }
          }
          JOINT RightShoulder
          {
            OFFSET -1.380118 23.180309 5.214158
            CHANNELS 3 Zrotation Yrotation Xrotation
            JOINT RightArm
            {
              OFFSET -15.037196 1.2e-05 -5.545604
              CHANNELS 3 Zrotation Yrotation Xrotation
              JOINT RightForeArm
              {
                OFFSET -28.736639 2e-06 -0.002597
                CHANNELS 3 Zrotation Yrotation Xrotation
                JOINT RightHand
                {
                  OFFSET -27.133619 -0.0 0.002613
                  CHANNELS 3 Zrotation Yrotation Xrotation
                  JOINT RightHandThumb1
                  {
                    OFFSET -2.274032 -1.383988 3.163127
                    CHANNELS 3 Zrotation Yrotation Xrotation
                    JOINT RightHandThumb2
                    {
                      OFFSET -4.011429 -1.827466 1.640914
                      CHANNELS 3 Zrotation Yrotation Xrotation
                      JOINT RightHandThumb3
                      {
                        OFFSET -2.794935 -4e-06 -3e-06
                        CHANNELS 3 Zrotation Yrotation Xrotation
                        JOINT RightHandThumbEnd
                        {
                          OFFSET -3.183852 4e-06 1e-06
                          CHANNELS 3 Zrotation Yrotation Xrotation
                        }
                      }
                    }
                  }
                  JOINT RightHandIndex1
                  {
                    OFFSET -3.253266 -0.520057 2.282866
                    CHANNELS 3 Zrotation Yrotation Xrotation
                    JOINT RightHandIndex2
                    {
                      OFFSET -6.341917 0.012471 0.178266
                      CHANNELS 3 Zrotation Yrotation Xrotation
                      JOINT RightHandIndex3
                      {
                        OFFSET -3.654871 -8e-06 -0.0
                        CHANNELS 3 Zrotation Yrotation Xrotation
                        JOINT RightHandIndex4
                        {
                          OFFSET -2.327586 0.0 1e-06
                          CHANNELS 3 Zrotation Yrotation Xrotation
                          JOINT RightHandIndexEnd
                          {
                            OFFSET -2.76179 -0.180656 -0.113078
                            CHANNELS 3 Zrotation Yrotation Xrotation
                          }
                        }
                      }
                    }
                  }
                  JOINT RightHandMiddle1
                  {
                    OFFSET -3.168106 0.246593 1.00103
                    CHANNELS 3 Zrotation Yrotation Xrotation
                    JOINT RightHandMiddle2
                    {
                      OFFSET -6.180828 -0.258836 -1.000895
                      CHANNELS 3 Zrotation Yrotation Xrotation
                      JOINT RightHandMiddle3
                      {
                        OFFSET -4.348901 0.0 -0.0
                        CHANNELS 3 Zrotation Yrotation Xrotation
                        JOINT RightHandMiddle4
                        {
                          OFFSET -3.00024 -4e-06 -2e-06
                          CHANNELS 3 Zrotation Yrotation Xrotation
                          JOINT RightHandMiddleEnd
                          {
                            OFFSET -2.30252 -0.29437 -0.031706
                            CHANNELS 3 Zrotation Yrotation Xrotation
                          }
                        }
                      }
                    }
                  }
                  JOINT RightHandRing1
                  {
                    OFFSET -2.88569 -0.067952 -0.308858
                    CHANNELS 3 Zrotation Yrotation Xrotation
                    JOINT RightHandRing2
                    {
                      OFFSET -5.854198 -0.48613 -1.373731
                      CHANNELS 3 Zrotation Yrotation Xrotation
                      JOINT RightHandRing3
                      {
                        OFFSET -4.33881 -4e-06 -0.0
                        CHANNELS 3 Zrotation Yrotation Xrotation
                        JOINT RightHandRing4
                        {
                          OFFSET -2.654903 -4e-06 4e-06
                          CHANNELS 3 Zrotation Yrotation Xrotation
                          JOINT RightHandRingEnd
                          {
                            OFFSET -1.933568 0.077527 -5.2e-05
                            CHANNELS 3 Zrotation Yrotation Xrotation
                          }
                        }
                      }
                    }
                  }
                  JOINT RightHandPinky1
                  {
                    OFFSET -2.866425 -0.342796 -1.584145
                    CHANNELS 3 Zrotation Yrotation Xrotation
                    JOINT RightHandPinky2
                    {
                      OFFSET -5.091371 -1.332055 -1.772385
                      CHANNELS 3 Zrotation Yrotation Xrotation
                      JOINT RightHandPinky3
                      {
                        OFFSET -3.062664 -4e-06 1e-06
                        CHANNELS 3 Zrotation Yrotation Xrotation
                        JOINT RightHandPinky4
                        {
                          OFFSET -1.546529 4e-06 -2e-06
                          CHANNELS 3 Zrotation Yrotation Xrotation
                          JOINT RightHandPinkyEnd
                          {
                            OFFSET -1.945119 -0.157718 0.057211
                            CHANNELS 3 Zrotation Yrotation Xrotation
                          }
                        }
                      }
                    }
                  }
                }
              }
            }
          }
        }
      }
    }
    JOINT LeftLeg
    {
      OFFSET 10.043214 -8.434526 2.595655
      CHANNELS 3 Zrotation Yrotation Xrotation
      JOINT LeftShin
      {
        OFFSET -1e-06 -43.221752 -0.802913
        CHANNELS 3 Zrotation Yrotation Xrotation
        JOINT LeftFoot
        {
          OFFSET 1e-06 -42.155094 -3.481523
          CHANNELS 3 Zrotation Yrotation Xrotation
          JOINT LeftToeBase
          {
            OFFSET 0.0 -5.059472 13.231529
            CHANNELS 3 Zrotation Yrotation Xrotation
            JOINT LeftToeEnd
            {
              OFFSET -0.009607 -1.647619 6.513017
              CHANNELS 3 Zrotation Yrotation Xrotation
            }
          }
        }
      }
    }
    JOINT RightLeg
    {
      OFFSET -10.047278 -8.29526 2.620317
      CHANNELS 3 Zrotation Yrotation Xrotation
      JOINT RightShin
      {
        OFFSET 1e-06 -43.362206 -0.805556
        CHANNELS 3 Zrotation Yrotation Xrotation
        JOINT RightFoot
        {
          OFFSET 2e-06 -42.117393 -3.478398
          CHANNELS 3 Zrotation Yrotation Xrotation
          JOINT RightToeBase
          {
            OFFSET -0.0 -5.079609 13.284196
            CHANNELS 3 Zrotation Yrotation Xrotation
            JOINT RightToeEnd
            {
              OFFSET 0.009532 -1.634378 6.460591
              CHANNELS 3 Zrotation Yrotation Xrotation
            }
          }
        }
      }
    }
  }
}
MOTION
Frames: 4
Frame Time: 0.03333333333333333
0.0 0.0 0.0 0.0 -0.0 0.0 -1.308961 51.167763 97.076881 1.565075 4.124402 43.395298 1.297013 0.173776 22.820763 0.228159 -1.082371 2.102031 -0.217471 -3.310122 13.622691 -2.434599 1.863383 -9.037722 -0.37758 0.899973 -3.488393 1.781071 0.572668 -8.229468 7.7e-05 -2.2e-05 7e-06 -0.098546 0.067411 -0.243814 0.540875 -3.646072 -10.601111 -0.73889 3.78654 -10.575356 12.72309 -32.077354 4.167351 -14.297336 -46.838863 -28.198294 1.028168 -16.394524 -0.044036 57.384285 -17.547136 0.137907 -5.882102 9.861283 0.70259 -10.93687 -0.360576 7.156205 1e-06 8.774822 -1e-06 -15.830261 18.16659 5.824528 -1.844032 2.498504 -2.507278 -10.163597 4.678942 4.621108 -20.976017 -5e-06 4e-06 -21.226282 2.451695 -3.593997 0.0 -6e-06 -0.0 -1.362681 2.240798 -0.746322 -21.334909 0.584907 3.008324 -13.821209 -4e-06 3e-06 -23.887165 -0.249079 -0.83948 -59.529259 2.87967 -1.971743 -0.294024 1.679687 0.833256 -14.218205 0.093214 1.300582 -34.212036 -0.287564 0.967174 -20.033209 0.964537 1.212844 0.0 0.0 -0.0 -3.440388 0.788233 0.501655 -15.928183 -3.167309 2.999709 -6.338825 -1e-06 2e-06 -18.123442 3.648181 -4.905668 -5e-06 0.0 -2e-06 -3.465853 31.996847 7.235805 18.802601 38.021854 -26.816099 1.44365 38.352833 0.335729 -60.237373 23.874586 -0.580823 2.24354 -5.255036 -3.180159 14.282887 -0.82659 6.952503 -5e-06 -12.690604 -1e-06 16.249472 -18.264261 2.650913 1.665666 -1.955922 -2.8783 4.727798 -4.170586 4.993924 11.020526 5e-06 -1e-06 12.109048 -3.735713 -2.866784 -0.0 -0.0 1e-06 1.291986 -1.928549 -1.498089 14.800127 0.567471 3.865609 14.242569 -1.341735 -6.660657 19.631964 0.14393 -0.648243 50.972477 -1.039961 -6.404997 0.353029 -1.51115 -0.03194 20.222788 3.684312 2.31663 18.78727 6e-06 2e-06 10.751626 -0.479869 1.397908 -0.0 -0.0 0.0 3.273806 0.305947 -0.580111 21.486814 11.830378 2.266136 8.162928 3e-06 -0.0 18.39908 -3.798984 -4.940573 2e-06 -0.0 -1e-06 3.355619 0.309383 -33.673809 -0.482545 -0.950287 99.076599 -0.162525 13.448664 31.17407 2.50568 -2.541672 3.11516 0.0 -0.0 1e-06 0.859992 1.046832 -49.596889 -0.356173 -0.402026 102.506744 23.564238 -0.120833 37.513557 -1.82549 0.739239 2.260332 0.0 0.0 -3e-06 
0.0 0.0 0.0 0.0 -0.0 0.0 -1.137264 51.622997 98.915833 1.926692 4.00448 43.298412 0.935701 0.425339 22.852591 0.08992 -1.115023 2.162011 -0.988192 -3.431491 13.624255 -1.858639 1.628521 -9.005642 -0.42266 0.806935 -3.572559 1.948606 0.42553 -8.339755 7.7e-05 -2.2e-05 6e-06 -0.046296 0.033605 -0.242968 0.590363 -3.692355 -10.617133 -0.684116 3.763239 -10.596348 12.673576 -32.631012 4.523508 -15.264126 -47.298149 -26.464928 0.934541 -15.718639 -0.006483 58.419258 -16.988132 0.792152 -5.882106 9.861288 0.702591 -10.936872 -0.360576 7.156206 -1e-06 8.774828 -2e-06 -15.789847 18.263451 5.985503 -1.844032 2.498506 -2.507277 -10.163604 4.678946 4.621109 -20.976027 -3e-06 2e-06 -21.226294 2.451698 -3.594003 0.0 -6e-06 -1e-06 -1.362682 2.240798 -0.746323 -21.334921 0.58491 3.008324 -13.821217 -3e-06 2e-06 -23.887177 -0.249078 -0.839484 -59.66378 2.78924 -1.616517 -0.294026 1.679688 0.833256 -14.218212 0.093215 1.300581 -34.212051 -0.287562 0.967171 -20.033218 0.964537 1.212844 -0.0 1e-06 -0.0 -3.440388 0.788234 0.501655 -15.928192 -3.16731 2.999709 -6.338829 -1e-06 1e-06 -18.123453 3.648184 -4.905673 -5e-06 0.0 -2e-06 -4.678778 32.032852 6.784746 14.544789 37.061836 -31.734869 1.077819 40.625237 0.011336 -57.879589 22.319433 -2.342937 2.24354 -5.255037 -3.180157 14.28289 -0.826592 6.952502 -3e-06 -12.690603 -1e-06 15.913185 -18.044323 2.732552 1.665666 -1.955921 -2.8783 4.727799 -4.170586 4.993924 11.020525 3e-06 -1e-06 12.109052 -3.735714 -2.866783 1e-06 0.0 -0.0 1.291985 -1.928549 -1.498089 14.800129 0.56747 3.865607 14.242569 -1.341735 -6.660655 19.631966 0.143927 -0.648242 50.587074 -0.90775 -6.528525 0.353028 -1.51115 -0.03194 20.222788 3.684311 2.316633 18.787271 5e-06 1e-06 10.751625 -0.479868 1.397907 0.0 0.0 0.0 3.273808 0.305947 -0.580112 21.486811 11.830376 2.266134 8.162926 3e-06 -1e-06 18.399078 -3.798983 -4.940572 3e-06 -0.0 -1e-06 3.112646 -0.564935 -38.641148 -0.487751 -0.531484 106.356804 1.234791 14.128578 30.116117 2.470105 -2.671845 3.040095 0.0 0.0 2e-06 -0.043554 0.455888 -47.291142 -0.27182 -0.121944 99.996727 22.217468 -0.153555 38.246193 -1.82763 0.754688 2.874587 -0.0 0.0 -2e-06 
0.0 0.0 0.0 0.0 -0.0 0.0 -0.931598 51.910805 100.806847 2.288099 3.713939 43.139793 0.631767 0.601006 22.934288 -0.002321 -1.000525 2.29351 -1.6984 -3.345261 13.693527 -1.570844 1.462262 -9.083467 -0.465355 0.680284 -3.615106 2.015419 0.28088 -8.413578 7.7e-05 -2.2e-05 4e-06 0.00822 0.000854 -0.223486 0.647139 -3.731293 -10.604355 -0.633246 3.735209 -10.568797 12.573791 -32.647373 4.686088 -16.827347 -48.290123 -25.18049 0.822414 -15.727544 0.019632 59.462494 -17.19673 1.585819 -5.882111 9.861292 0.702589 -10.936883 -0.360575 7.156211 -2e-06 8.774831 -2e-06 -15.863751 18.353502 6.062145 -1.844035 2.498506 -2.50728 -10.163611 4.678947 4.62111 -20.976044 -2e-06 2e-06 -21.226307 2.451699 -3.594003 0.0 -6e-06 -1e-06 -1.362683 2.2408 -0.746324 -21.334936 0.58491 3.008324 -13.821227 -3e-06 2e-06 -23.887196 -0.249078 -0.839484 -59.780632 2.655949 -1.327939 -0.294025 1.679689 0.833256 -14.218224 0.093215 1.300581 -34.212082 -0.287564 0.96717 -20.033232 0.964537 1.212844 0.0 0.0 -0.0 -3.440392 0.788235 0.501656 -15.928201 -3.167312 2.999709 -6.338834 -1e-06 1e-06 -18.123466 3.648184 -4.905676 -5e-06 0.0 -2e-06 -6.066859 32.41642 6.305088 9.713862 35.678776 -35.521374 1.104199 40.021233 -0.064141 -55.469387 19.333553 -3.209233 2.243542 -5.255041 -3.18016 14.282903 -0.826594 6.95251 -3e-06 -12.690612 -1e-06 15.897696 -17.870667 2.697058 1.665667 -1.955923 -2.8783 4.727802 -4.170589 4.993927 11.020536 3e-06 2e-06 12.109059 -3.735718 -2.866784 1e-06 -0.0 -1e-06 1.291986 -1.928551 -1.49809 14.800144 0.56747 3.865613 14.242584 -1.341738 -6.66066 19.631985 0.143926 -0.648242 50.395458 -0.72036 -6.463634 0.353029 -1.511151 -0.031941 20.222805 3.684314 2.316637 18.787289 4e-06 3e-06 10.751637 -0.47987 1.397909 -0.0 0.0 -0.0 3.273809 0.305948 -0.58011 21.486835 11.830383 2.266141 8.162933 2e-06 1e-06 18.399096 -3.798985 -4.940577 3e-06 -0.0 -1e-06 2.766157 -1.449745 -43.459038 -0.429437 -0.036634 111.71537 2.534831 14.601633 29.037655 2.430972 -2.749902 2.937227 -0.0 0.0 1e-06 -1.244662 0.188125 -45.179424 -0.206596 0.118886 98.159279 20.867943 1.083833 38.184837 -1.817197 0.753327 2.898328 -0.0 0.0 -3e-06 
0.0 0.0 0.0 0.0 -0.0 0.0 -0.679378 52.04385 102.772186 2.554386 3.187527 42.95451 0.373966 0.719354 23.044033 -0.071073 -0.756293 2.450891 -2.315672 -3.055331 13.819955 -1.56266 1.416127 -9.265228 -0.567112 0.558292 -3.607117 1.986997 0.175534 -8.574168 7.7e-05 -2.3e-05 5e-06 0.034813 -0.018226 -0.199621 0.675203 -3.745999 -10.543919 -0.610176 3.711229 -10.494781 12.365075 -32.223724 4.648653 -19.057308 -49.620102 -23.930634 0.80458 -16.185692 0.030378 60.569714 -17.919113 2.035734 -5.882109 9.861288 0.70259 -10.936877 -0.360575 7.156211 0.0 8.774827 -2e-06 -15.900088 18.399857 6.113363 -1.844033 2.498507 -2.507279 -10.163606 4.678945 4.62111 -20.976034 -3e-06 4e-06 -21.226299 2.451698 -3.594003 -0.0 -6e-06 -1e-06 -1.362683 2.240799 -0.746324 -21.334927 0.584908 3.008327 -13.821221 -3e-06 3e-06 -23.887184 -0.249079 -0.839483 -59.870754 2.611445 -1.122272 -0.294025 1.679688 0.833256 -14.218215 0.093214 1.300582 -34.212067 -0.287563 0.967174 -20.033222 0.964537 1.212845 0.0 0.0 0.0 -3.44039 0.788234 0.501656 -15.928192 -3.167311 2.999711 -6.33883 -1e-06 1e-06 -18.123457 3.648183 -4.905674 -5e-06 0.0 -1e-06 -7.566356 33.155155 5.814153 5.149096 34.073437 -38.263073 1.470034 37.203564 0.137191 -52.956348 15.766415 -4.141177 2.243543 -5.255037 -3.180157 14.282898 -0.826596 6.952505 -2e-06 -12.690605 0.0 15.997248 -17.724331 2.586916 1.665667 -1.955922 -2.878298 4.727801 -4.170588 4.993925 11.020533 2e-06 -0.0 12.109056 -3.735717 -2.866783 2e-06 -0.0 -0.0 1.291985 -1.928549 -1.498089 14.800136 0.567468 3.865609 14.242581 -1.341738 -6.660658 19.631979 0.143923 -0.648246 50.228317 -0.540792 -6.327384 0.353029 -1.51115 -0.031941 20.222801 3.684308 2.316631 18.787285 3e-06 -1e-06 10.751634 -0.479869 1.397906 -1e-06 -0.0 0.0 3.273808 0.305947 -0.58011 21.486824 11.830376 2.266133 8.162932 2e-06 -1e-06 18.399092 -3.798985 -4.940577 3e-06 -1e-06 -1e-06 2.250042 -2.211796 -48.176968 -0.308146 0.487972 115.60849 3.999074 14.444269 28.237286 2.39212 -2.770832 2.804364 -0.0 0.0 0.0 -2.553695 0.236221 -43.086498 -0.136545 0.288864 96.334412 19.549004 3.294931 37.884415 -1.782488 0.746807 2.621638 0.0 0.0 -3e-06 
